<!--?xml version="1.0" standalone="no"?-->
              <svg id="sw-js-blob-svg" viewBox="0 0 100 100" xmlns="http://www.w3.org/2000/svg" version="1.1">
                    <defs> 
                        <linearGradient id="sw-gradient" x1="0" x2="1" y1="1" y2="0">
                            <stop id="stop1" stop-color="rgba(48.057, 52.641, 184.811, 1)" offset="0%"></stop>
                            <stop id="stop2" stop-color="rgba(133, 33, 184, 1)" offset="100%"></stop>
                        </linearGradient>
                    </defs>
                <path fill="url(#sw-gradient)" d="M15.8,-26.1C20.3,-21.7,23.7,-17,28.3,-11.6C32.8,-6.2,38.5,0.1,39.2,6.7C39.8,13.2,35.5,20.1,30,25.5C24.5,30.8,17.9,34.6,11.1,35.6C4.3,36.5,-2.6,34.6,-8.6,31.7C-14.6,28.9,-19.7,25.1,-24.3,20.6C-29,16.1,-33.3,10.7,-36.3,3.9C-39.3,-2.9,-40.9,-11.1,-38.3,-17.8C-35.7,-24.4,-28.9,-29.4,-21.8,-32.6C-14.7,-35.9,-7.4,-37.5,-0.9,-36.2C5.6,-34.9,11.3,-30.6,15.8,-26.1Z" width="100%" height="100%" transform="translate(50 50)" stroke-width="0" style="transition: all 0.3s ease 0s;"></path>
              </svg>