<!--?xml version="1.0" standalone="no"?-->
              <svg id="sw-js-blob-svg" viewBox="0 0 100 100" xmlns="http://www.w3.org/2000/svg" version="1.1">
                    <defs> 
                        <linearGradient id="sw-gradient" x1="0" x2="1" y1="1" y2="0">
                            <stop id="stop1" stop-color="rgba(248, 117, 55, 1)" offset="0%"></stop>
                            <stop id="stop2" stop-color="rgba(251, 168, 31, 1)" offset="100%"></stop>
                        </linearGradient>
                    </defs>
                <path fill="url(#sw-gradient)" d="M21.4,-33.1C28.1,-29,34.1,-23.7,37.7,-16.9C41.2,-10.1,42.2,-2,40.2,5.2C38.3,12.3,33.3,18.4,27.8,23.2C22.3,27.9,16.2,31.3,9.6,33.6C3,35.9,-4.1,37.1,-11.9,36.6C-19.7,36.1,-28.1,33.8,-32.8,28.4C-37.6,23,-38.7,14.4,-38,6.6C-37.3,-1.1,-34.8,-7.9,-31.5,-14.2C-28.3,-20.5,-24.5,-26.3,-19.1,-30.9C-13.7,-35.6,-6.9,-39.1,0.3,-39.5C7.4,-39.9,14.7,-37.1,21.4,-33.1Z" width="100%" height="100%" transform="translate(50 50)" stroke-width="0" style="transition: all 0.3s ease 0s;"></path>
              </svg>